<svg id="Layer_1" data-name="Layer 1" xmlns="http://www.w3.org/2000/svg" viewBox="0 0 289.02 412.48"><path d="M223.29,454.18v47.74c-5.75,2.61-10.6,6-15.88,6.92a73.41,73.41,0,0,1-21.55.24c-5-.67-10.06-3.21-14.51-5.88-2-1.2-3.48-4.76-3.57-7.31-.44-12.32-.3-24.66-.41-37,0-1.95-.19-3.9-.32-6.36H123.2c0-8.47,0-16.41,0-24.35,0-7.5-.48-15-.18-22.5.18-4.74-2.18-7.45-5.8-9.31-13.81-7.07-27.73-13.92-41.56-20.94Q64.93,370,54.38,364.2A4.43,4.43,0,0,1,52.31,361c.06-3.63.59-7.26,1-11.38,28.32-1.07,56.86,1.23,85.57-2,.77-10.87,1.55-21.62,2.28-32.38q2.88-42.88,5.73-85.75c1.48-22.44,2.85-44.88,4.34-67.32,1.26-19.11,2.39-38.23,4.21-57.29.22-2.36,4.25-6.13,6.62-6.22,23-.8,46-.91,69-1.35,3.22-.06,4,1.55,4.17,4.16q3.54,41.82,7.1,83.62c2.17,25,4.47,50.07,6.64,75.11,1.83,21.07,3.53,42.14,5.33,63.21.68,7.95,1.46,15.9,2.28,24.85h84.71c0,4.28.3,7.6-.14,10.82a6.09,6.09,0,0,1-3,3.73c-14,7.64-28.2,15-42.16,22.7-8.46,4.68-16.61,9.93-25.62,15.36,0,8.83-.17,18.62.06,28.4.16,6.62.73,13.25,1.4,19.84.4,3.92-.48,5.87-4.94,5.74-12.47-.38-25-.45-37.44-.63C227.61,454.16,225.8,454.18,223.29,454.18Zm-1.06-342.7H167.05q-6.69,119-13.35,237.34h87.54C234.89,269.51,228.58,190.71,222.23,111.48Zm86.2,251.74-.5-1.67L84,363.62a27.71,27.71,0,0,0,3.67,2.78c9.89,5,19.77,10,29.75,14.85,4.73,2.29,9.65,5.9,14.52,5.95,43.63.47,87.27.29,130.91.25a9.07,9.07,0,0,0,4.15-.92c6.3-3.42,12.52-7,18.77-10.53Q297.08,369.6,308.43,363.22ZM167,401.71v38.61c19.87,0,39.13,0,58.39,0,3.25,0,3.71-2,3.29-4.72a87.41,87.41,0,0,1-1.21-10.81c-.19-7.6-.06-15.21-.06-23.07Zm-29.72,0v37.43h14.66V401.71Zm118.86,38.45V401.84H242.67v38.32ZM180.9,474.07,182,476a33.44,33.44,0,0,0,5.14-1.35c6-2.62,11.82-5.73,17.95-8,3.41-1.25,3.87-2.83,2.81-5.8C198.85,465.48,189.13,468.42,180.9,474.07Zm8.56,14.36.1.66H208v-8.94ZM186,500.67c5.47,6.95,15.89,6.63,20.08,0Zm3-46.75-.7-1.35c-2.55.84-7.35-1.81-6.76,5.45Z" transform="translate(-52.31 -97.28)"/></svg>