<svg id="Layer_1" data-name="Layer 1" xmlns="http://www.w3.org/2000/svg" viewBox="0 0 148.66 224.19"><path d="M338.33,217.43c.67,16.64-5.92,32.72-11.64,49a41.06,41.06,0,0,0-2.18,11.14c-1.24,21.93-1.8,43.91-3.53,65.8a124.69,124.69,0,0,1-11,41.73,22.2,22.2,0,0,1-4.69,7c-1.8,1.68-4.73,3.65-6.69,3.24s-3.91-3.48-4.5-5.75c-1.46-5.61-2.2-11.42-3.11-17.16-1.82-11.49-3-23.11-5.48-34.45-2.35-10.67-5.74-21.19-12.64-30.07-5.84-7.51-11.53-7.61-17.41,0-6.77,8.72-10.38,19-12.45,29.62-2.9,14.83-4.7,29.87-7.11,44.8a49,49,0,0,1-2.52,9.6c-1.66,4.35-4.8,5.45-8.06,2.19a38.29,38.29,0,0,1-8.13-11.7c-7.1-16.69-10.27-34.39-11.35-52.38s-.93-36.31-2.29-54.39c-.5-6.77-3.38-13.46-5.8-19.95-5.81-15.65-9-31.64-7.71-48.39,1.53-20.55,19.75-37,40.13-35.38,6.52.51,12.86,3.08,19.34,4.41a74.61,74.61,0,0,0,38.93-2.42c12.59-4.17,23.87-2,34.34,5.53C335.36,188.53,339,201.53,338.33,217.43ZM301,381.4c1.44-1.71,2.37-2.35,2.61-3.18,2.47-8.44,5.46-16.79,7.1-25.39,4.67-24.47,4.55-49.33,5.46-74.12a65.88,65.88,0,0,1,3.95-19.81c6.31-17.32,11.67-34.62,9-53.45-2.39-16.65-19-28.11-35.25-23.43a104.69,104.69,0,0,1-59.5-.07c-16-4.65-33,7.15-35.19,23.68-1.94,14.55.77,28.42,5.17,42.18,2.92,9.11,6.81,18.23,7.71,27.6,1.87,19.53,1.19,39.31,3.22,58.82,1.45,13.92,5.56,27.58,8.63,41.32.4,1.8,1.74,3.38,3,5.74,2.43-15.35,4.26-29.51,7-43.49,2.45-12.42,6.54-24.41,14.18-34.79,7.09-9.64,17.1-12.28,25.51-6.35a34,34,0,0,1,8.66,9.41c9,14,12.64,29.85,15.09,46C298.68,361.4,299.64,370.78,301,381.4Z" transform="translate(-189.76 -171.81)"/></svg>