<svg id="Layer_1" data-name="Layer 1" xmlns="http://www.w3.org/2000/svg" viewBox="0 0 160.21 297.03"><path d="M297.12,314.24m10.51-116.58h1.75c15.45,0,77-1.09,90.76-1.13a3.69,3.69,0,0,1,.59.12,10.15,10.15,0,0,0,0,1.91c.11.56,2.13,16.2,2.24,17.85.07,1.08,13.35,105.12,13.69,106.77a48.62,48.62,0,0,1,10.11,14.23c2.07,5.23,5.45,14.35,5.6,14.9.3,1.07,3.58,14,2.44,14.22-.36.06-27.39,38.17-27.38,39.77.08,12.24.07,24.47.16,36.7,0,1.49-.4,3,.74,4.53.63.84.11,2.54.11,4H373.54v36.34c-.71,0-13.71,5.41-15.28,5.52-2.78.2-5.57.12-8.36.12-.57,0-14.36-5.75-14.38-5.76-2-2.48-1.6-5.28-1.61-8q0-13.47-.06-26.93c0-.7,0-1.41,0-2.33H302.06c0-3.47,0-6.71,0-10,0-9.21-.15-35.2-.22-36.24,0-.61-26.69-52.3-27-53.11,1.27-2,17.91-5.84,19.31-6.45M303,351.3a.85.85,0,0,1-.25.33c-.36.38-13.5,4.82-14.53,4.89.64.83,9.36,6.39,14.43,5.09,12.65-4.49,6.24-1.51,18.42-7.65,11.23-5.61,50.25-34.23,68.08-38.35a55.54,55.54,0,0,1,16.08-.11c-.14-.81-.2-1.49-.38-2.13s-13.13-105.48-13.21-106.22c-.06-.5-.09-1-.12-1.41H386c0,1.06-12.66,60.85-32.16,60.31a26.69,26.69,0,0,1-13-1.93c-13.84-6.36-17.24-56.25-17.24-58.5h-6.79M424.46,362.43c.07-.82-3.54-13.46-3.72-13.91s-1.35-3.47-3.16-7.55a22.09,22.09,0,0,0-6.67-9.88c-.87-.61-4-2.91-4.39-3a34.62,34.62,0,0,0-4.58-2.47,7.61,7.61,0,0,0-3.08-.66l-5.89,0a20.69,20.69,0,0,0-13.53,4.45c-10.36,7.6-53.24,33.57-53.69,33.87a5.1,5.1,0,0,1-.8.46c-2,1.5-25.26,7.46-27.9,7.47h-.94c.46,1.2,15.67,30.61,15.67,30.61h86.55m-64.41-194c0,23.9,6.46,47.07,15.5,48.63,19.77,3.41,24.6-48.49,24.37-48.49C365.1,207.89,338.14,207.73,333.92,207.73Zm-1.19,233.73,18.67-.18,25.62.17s-.11-20.58-.15-27.76v-1.63h-44a1.23,1.23,0,0,0-.14.36m-9.28-.36H311.78c.14,1.52.32,5.52.33,6.15.09,6.8.12,13.59.16,20.39,0,.51,0,1,0,1.57h11.18c0-7.32,0-14.49,0-21.67Zm63.64-.05c0,4.55,0,9,0,13.41s0,9.06.08,13.59c0,.65-.09,2.45-.09,2.45l2.35,0,8.17,0s-.31-28.79-.31-29.45Zm-23.83,47.37v-3.22c-.63.71-18.38,8-19.28,9.35.08,1,0,2.15,0,2.93m5.29,9.18h13.9v-6.86C361.7,471.28,349.73,477.07,349.31,477.62ZM346.52,488l-.27.51a8,8,0,0,0,1,.49,14.35,14.35,0,0,0,2.61,1.16c3,0,6.05,0,9.07,0a24.3,24.3,0,0,0,3.37-1.77l-.25-.35Zm-2.18-34c1.94-.42,5.22-3.05,5.22-3.42h-2.71c-3.07,0-3.07,0-2.77,3.06C344.08,453.65,344.13,453.69,344.34,454Z" transform="translate(-274.87 -196.53)"/></svg>