<svg id="Layer_1" data-name="Layer 1" xmlns="http://www.w3.org/2000/svg" viewBox="0 0 217.09 468.76"><path d="M348,373.73c-26.67,0-53.34-.06-80,.06-4,0-5.9-1-7.49-5.11-3.87-10.05-9.12-19.56-13.18-29.55-7.43-18.3-8.78-37.41-6.61-56.9,1.53-13.74,3.63-27.34,9.88-39.91,12-24.12,35.74-31.32,59.71-18.67a140.56,140.56,0,0,0,27,11.35c14.55,4.11,28.13-.5,41.3-7,7.69-3.8,15.66-7.8,23.95-9.42,18.31-3.58,33.5,4.77,42.31,21.15,5.95,11,8.53,23,10.21,35.22,1.85,13.36,2.62,26.8.58,40.32a104,104,0,0,1-9.91,31.7,221.58,221.58,0,0,0-9.81,22.33c-1.29,3.49-2.95,4.5-6.44,4.49-27.17-.11-54.34-.06-81.5-.06Z" transform="translate(-239.77 -217.51)"/><path d="M430.85,388.51c-1.77,6.78-3.34,13-5,19.19-2.45,9-5,17.91-7.48,26.89-1.69,6.23-6.5,10.35-13,10.36q-57,.07-114-.05c-6.18,0-11.08-3.56-12.74-9.37-4.2-14.7-8.17-29.46-12.18-44.2a12.22,12.22,0,0,1,0-2.82Z" transform="translate(-239.77 -217.51)"/><path d="M348.58,459.08c13.66,0,27.33.14,41-.08,4.56-.07,5.78,1.31,5,5.85a114.23,114.23,0,0,0-1.19,15.92,7.56,7.56,0,0,1-4.76,7.37c-24.72,12-50.51,19.45-78.21,19.54-3.9,0-5.09-1.11-5.31-5Q304,483,302,463.34c-.38-3.78,1-4.25,4.06-4.24,14.16.06,28.32,0,42.48,0Z" transform="translate(-239.77 -217.51)"/><path d="M307.1,526.71c29.53-.74,57.12-6.5,83.84-19.29-.66,8.53-1.11,15.94-1.93,23.3-.12,1.09-1.83,2.27-3.06,2.94-22.6,12.17-46.53,19.46-72.39,19.87-3.23.05-4.32-.92-4.5-4.17C308.66,542.08,307.83,534.83,307.1,526.71Z" transform="translate(-239.77 -217.51)"/><path d="M387.29,554.3c-.73,7.84-1.27,15.06-2.18,22.24-.14,1.12-1.76,2.4-3,3-20.2,9.77-41.32,16.4-63.72,18.81-4.19.45-5.54-.87-5.65-5-.17-5.81-.94-11.6-1.47-17.4-.22-2.32.3-3.81,3.12-3.84,24.53-.26,47.59-6.64,69.74-16.81C384.85,555,385.64,554.82,387.29,554.3Z" transform="translate(-239.77 -217.51)"/><path d="M383.61,599.5c-.79,8.25-1.42,15.81-2.33,23.33-.12,1-1.56,2.09-2.64,2.55a273.77,273.77,0,0,1-58,18c-2.9.53-4-.55-4.2-3.25-.47-6.48-.87-13-1.52-19.42-.32-3.22,1.7-3.48,3.94-3.84,8.54-1.38,17.28-2.06,25.57-4.34,12.15-3.35,24-7.84,36-11.85C381.12,600.39,381.86,600.12,383.61,599.5Z" transform="translate(-239.77 -217.51)"/><path d="M378.8,645.8c2.52,18-5,32.49-19.66,38.5-14.9,6.11-34.08-2.61-39.2-17.76-.95-2.79-.47-4.5,2.68-5,18.41-2.93,36.1-8.43,53.48-15C376.85,646.25,377.65,646.11,378.8,645.8Z" transform="translate(-239.77 -217.51)"/></svg>