<svg id="Layer_1" data-name="Layer 1" xmlns="http://www.w3.org/2000/svg" viewBox="0 0 149.04 223.76"><path d="M275.53,271.26c-.66-17.28,3.39-30.69,17-39.86,10.84-7.27,22.5-7.32,34.45-3.88a80.15,80.15,0,0,0,45.27,0c21.2-6.07,39.46,1.21,47.94,19.41,5.22,11.17,5,23.22,2.74,34.81-2.38,12-6.76,23.54-10,35.35a68.1,68.1,0,0,0-2.78,14.06c-1.26,21.27-1.56,42.61-3.44,63.82-1.38,15.56-4.8,30.92-12.3,44.94a26.16,26.16,0,0,1-5.47,7c-3.57,3.18-7.09,2.39-8.49-2.2a141.29,141.29,0,0,1-3.58-17c-2.43-13.91-3.95-28-7.35-41.68-2.11-8.53-6.21-16.83-10.8-24.41-5.37-8.86-11.91-8.59-18.08-.19-7.56,10.28-11.13,22.29-13.42,34.55-2.51,13.39-4,27-6,40.46a32.43,32.43,0,0,1-2.35,8.6c-2.08,4.5-5.45,5.39-8.54,1.56A61.19,61.19,0,0,1,301,431c-6.25-15.75-8.65-32.46-9.81-49.23-1.13-16.27-1.67-32.62-1.63-48.93,0-9.76-4.12-18.09-7.16-26.78C278.27,294.16,275.46,282.14,275.53,271.26ZM311.72,433.6l1.39-.24c1.08-9.05,2-18.12,3.29-27.14,2.33-15.85,5.77-31.47,14.13-45.39,11.73-19.54,28.16-19,39,1.06,7.74,14.25,11.5,29.69,13.61,45.6,1.15,8.65,2.16,17.3,3.28,26.32.93-.59,1.48-.74,1.69-1.1a10.42,10.42,0,0,0,1.26-2.68c2.78-10.57,6.91-21,8-31.77,2.26-22.68,2.81-45.52,4.29-68.27a51,51,0,0,1,2.51-14.09c5.22-14.4,10.08-28.76,11.32-44.25,1.57-19.66-7.51-33.5-25.15-37.33-3.64-.79-5,.19-6.18,3.5C380.1,249,372.31,256.66,360.92,260c-19.89,5.9-38.06-3.29-46.18-22.73-.59-1.41-2.82-3.31-3.92-3.1-4,.77-8.22,1.74-11.75,3.72-13.14,7.36-15.73,19.82-15,33.46a116.92,116.92,0,0,0,7.68,34.91c2.68,7.07,5.25,14.51,5.9,21.95,1.22,14.09.71,28.31,1.5,42.45,1.13,20.12,3.25,40.12,10.77,59.11C310.47,431.09,311.13,432.33,311.72,433.6Z" transform="translate(-275.46 -225.31)"/></svg>