<svg id="Layer_1" data-name="Layer 1" xmlns="http://www.w3.org/2000/svg" viewBox="0 0 79.79 117.5"><path d="M311.66,404c7.76,0,14.42-.18,21.06.08,3.34.12,5-1.05,5.27-4.29a14.69,14.69,0,0,1,.29-1.47c1.49-6.84,5.32-9.27,11.76-6.87,1.31.48,2.22,3,2.65,4.71,2.25,9.16.28,7.68,9.84,7.82,5.48.08,11,0,17.2,0-6.71,11.31-1.84,22.53-1.24,33.61.66,12.27,0,24.33-3.61,36.06-.6,1.91-3,3.25-4.61,4.86-1-2-2.78-4-2.9-6-.68-11.4-3.78-22-10.1-31.49-6.55-9.87-15.78-10-22.55-.34-6.65,9.52-9.8,20.25-10.4,31.85-.11,2.05-1.88,4-2.88,6-1.65-1.77-4.19-3.28-4.82-5.36-4.76-15.62-4.25-31.57-2.06-47.54C315.54,418.54,316.45,411.45,311.66,404Z" transform="translate(-306 -361.09)"/><path d="M371.1,397.69h-2c-9.57,0-9.43,0-12.3-9.19-.46-1.49-2.65-2.84-4.33-3.45s-3.62-.17-5.45-.13c-3.49.08-7.83-1-10.2.68s-2.21,6.18-3.57,9.28c-.51,1.19-2.1,2.64-3.25,2.69-6.32.25-12.66.22-19,0-1.17,0-3.06-1.1-3.33-2-3.83-13.52-2.15-28.77,15.21-33.7,5.12-1.46,11.22-.5,16.66.5a33,33,0,0,0,12.64,0c5.3-1,11.06-1.73,16.23-.67,11.24,2.32,18.09,12.67,17.28,24.18C384.88,397.69,384.88,397.69,371.1,397.69Z" transform="translate(-306 -361.09)"/></svg>