<svg id="Layer_1" data-name="Layer 1" xmlns="http://www.w3.org/2000/svg" viewBox="0 0 310.07 326.13"><path d="M149.8,293.38h-46c0-7,.06-13.42,0-19.85-.16-14.5-.5-29-.5-43.49,0-3.77-.88-6-4.43-8.1C89.4,216.46,80.3,210.33,71,204.51c-13.81-8.65-27.65-17.23-41.45-25.89-.83-.53-1.86-1.45-2-2.29-.69-5.07-1.14-10.16-1.74-15.87,1.71-.15,3.44-.44,5.18-.46,7.83,0,15.67,0,23.5,0,8.24,0,10.35-1.81,13.84-8.94,4.72-9.62,10.16-18.88,15.21-28.34C87.75,114.9,91.72,107,96,99.19c4.8-8.84,9.92-17.52,14.68-26.38,5.08-9.44,10.2-18.88,14.67-28.6,1.53-3.31,3.63-2.9,6-2.87,22.17.28,44.33.65,66.5.93,8.34.11,16.67-.05,25,.13a5.3,5.3,0,0,1,3.88,1.81c6.15,9.32,12.15,18.74,18.09,28.2,9.32,14.85,18.42,29.84,27.87,44.6,8,12.52,17.2,24.37,24.23,37.4,3.32,6.14,7.21,5.53,12,5.56,9,.06,17.94,0,27.07,0v15.82c-10.13,2-17.56,8.09-25.15,14-4.27,3.32-8.82,6.27-13.29,9.33q-14.94,10.2-29.94,20.32c-3,2.05-6.15,4-9.86,6.37,0,8.49-.19,17.81.05,27.12.31,12.29.87,24.58,1.52,36.86.19,3.4-.74,4.9-4.33,4.82-13.33-.28-26.65-.4-40-.58-1.81,0-3.63,0-6,0v61.54c-6,3.19-11.11,5.87-16.18,8.64-7.62,4.15-15.5,4.12-23.27.89a89.32,89.32,0,0,1-16-8.26c-2-1.33-3.27-5-3.32-7.57-.37-16.66-.31-33.33-.39-50C149.79,297.5,149.8,295.72,149.8,293.38ZM281.55,159.67c-.77-1.44-1.23-2.45-1.82-3.39q-30.51-48.6-61.16-97.11A7.68,7.68,0,0,0,213,56.28c-23.82-.45-47.66-.56-71.49-1-3.56-.07-5.27,1.21-6.82,4.2q-25,48-50.26,95.83c-.67,1.27-1.21,2.6-2,4.36Zm16.79,18.06-.5-1.34L64.63,178.5c1.27,1.86,1.73,3.21,2.68,3.82,6.34,4.08,12.86,7.9,19.17,12,3.73,2.43,7.07,5.48,10.84,7.84a97.9,97.9,0,0,0,10.58,5.34c1.67.78,3.5,1.74,5.26,1.74q68.51.15,137,0a10.49,10.49,0,0,0,5.15-1.83c5.46-3.45,10.81-7.08,16.17-10.68,3.15-2.11,6.22-4.32,9.36-6.43,4.43-3,8.94-5.83,13.33-8.86A41.81,41.81,0,0,0,298.34,177.73Zm-149,97.72,64.31,2.13v-51H149.29Zm-14.85-.33V226.71H117.53c.52,16.39,1,32.38,1.52,48.41Zm93.4-48.55c0,14.45-.11,28.55.1,42.64,0,2.62.91,7.2,2.14,7.47,4.26.92,8.86.45,13.31.18.49,0,1.24-2.22,1.21-3.39-.2-8.29-.67-16.58-.85-24.87-.15-7.26,0-14.53,0-22Zm-61.77,96.09a21.09,21.09,0,0,0,4.34-1c5.65-2.77,11.24-5.68,16.83-8.58,3.53-1.83,7.72-3.37,4.63-9.11a17,17,0,0,0-3.55,1.16c-5.91,3.5-11.64,7.32-17.67,10.59C168,317.15,165,317.85,166.07,322.66Zm7.41,15.92.62,1.54h18.33V328.74Zm-4.94,19c7,5.15,18.56,4.94,24,0Zm4.49-63.7H166v6.34Z" transform="translate(-25.85 -41.31)"/></svg>