<svg id="Layer_1" data-name="Layer 1" xmlns="http://www.w3.org/2000/svg" viewBox="0 0 234.74 141.76"><path d="M290.28,461.75c-9.82,0-18.4.05-27-.07a5.22,5.22,0,0,1-2.93-1.52,21.8,21.8,0,0,1-3.36-3.69c-7.71-10.83-17.13-16.37-31.43-17.51-24.9-2-42-21.73-45.07-46.69-1.46-12.09-1.08-23.94,2.75-35.49,6-18.16,18.5-29.65,37.06-34.25,15-3.72,30.06-3.5,44.7,1.75,14.8,5.31,25.22,15.56,30.17,30.48,6.53,19.68,6.24,39.25-3.47,58.07-4.66,9-9.84,13.78-24.42,23Zm-80.67-82.31c1.6,8.06,2.31,15.08,4.46,21.63,3.39,10.32,10.71,16.56,21.94,17.56,11.85,1.07,21.66-2.42,27.05-13.57,7.57-15.67,7.47-31.89.74-47.79-4.4-10.38-13-15.19-24.22-15.2-11,0-19.71,4.57-23.9,14.8C212.65,364.26,211.44,372.39,209.61,379.44Z" transform="translate(-179.71 -320)"/><path d="M414.35,352.33c-5.18-2.48-9.55-4.78-14.09-6.69a48.07,48.07,0,0,0-27.44-2.85c-13.43,2.35-21.31,11.07-24.75,23.81a51.29,51.29,0,0,0,.15,28.12c5.47,18.59,20.36,27.38,40.88,23.36,8.48-1.67,16.55-5.43,25.22-8.38,0,6.37.06,13.59-.09,20.8A3.76,3.76,0,0,1,412.3,433c-21.11,11-55.3,10.88-75.16-4.3-12.48-9.55-19.36-22.33-21.16-37.66-2-16.73-.34-33,9.87-47.24,9.92-13.86,24-20.82,40.48-22.92,15.09-1.91,29.88-.36,44,6,3,1.34,4.31,2.91,4.14,6.33C414.14,339.34,414.35,345.51,414.35,352.33Z" transform="translate(-179.71 -320)"/></svg>