<svg id="Layer_1" data-name="Layer 1" xmlns="http://www.w3.org/2000/svg" viewBox="0 0 130.23 223.65"><path d="M331.6,357.13H257.15v-12.7c-.77-.49-1.07-.85-1.31-.81-5.88.85-8.08-2.06-10.39-7.4-5.27-12.18-12.11-23.7-14.6-36.94-2.34-12.43-2.64-24.76,2.18-36.82,5.18-13,20.37-25.08,37.34-19.62,15.67,5,31.2,5.62,46.93.22,19.9-6.82,38.14,9.23,41.21,28.78,2.87,18.33-1.1,35.29-9.11,51.65-2.85,5.8-5.25,11.83-8.26,17.55-.65,1.25-3.06,2.33-4.57,2.22-4.07-.31-5.39,1.22-5,5.12C331.82,351.16,331.6,354,331.6,357.13Zm-37.54-22.54c12,0,24,.1,36-.12,1.77,0,4.42-1.13,5.11-2.52,4.21-8.45,8.62-16.91,11.73-25.79,4.47-12.75,6-25.9,1.21-39.13-4.51-12.53-16.31-19.19-28.78-15.35a81.62,81.62,0,0,1-50-.07c-11.14-3.53-21.71,1.49-27,12-6,11.86-5.52,24.42-2.05,36.53,2.85,10,8.08,19.23,11.76,29,1.75,4.65,4.52,5.66,9.06,5.55C272.06,334.39,283.06,334.58,294.06,334.59Z" transform="translate(-229.21 -241.46)"/><path d="M260.79,381c.89-9.59-5-10.65-12.48-9.42v-8.62h92.11v8.58c-7.57-1.34-13.49,0-12.37,9.46Z" transform="translate(-229.21 -241.46)"/><path d="M326.46,433.25v7.55c-.44.26-.7.55-1,.57-9.33.69-9.74.62-11.48,10.75-1,5.94-4.15,9.23-9.32,11.1a28.47,28.47,0,0,1-24.5-1.92c-4.65-2.57-4.83-7.17-5.82-11.49-1.8-7.86-1.82-7.84-9.92-8.3a15.92,15.92,0,0,1-2.1-.41v-7.85Z" transform="translate(-229.21 -241.46)"/><path d="M252.93,394.59v-8.08h82.95V395c-6.53-.31-13.48-1-12.55,8.83H265.79C263.89,396,263.89,396,252.93,394.59Z" transform="translate(-229.21 -241.46)"/><path d="M257.42,417.87V410h73.93v7.88a21.63,21.63,0,0,1-3.61.25c-5.13-.55-8.87.36-8.76,6.79,0,.83-2.17,2.42-3.35,2.44q-21.19.25-42.4,0c-1.17,0-3.31-1.58-3.33-2.45-.14-6.2-3.66-7.42-8.87-6.77A19.12,19.12,0,0,1,257.42,417.87Z" transform="translate(-229.21 -241.46)"/></svg>