<svg id="Layer_1" data-name="Layer 1" xmlns="http://www.w3.org/2000/svg" viewBox="0 0 26.18 30.14"><path d="M114.23,255v1.17l-6.5,4c0,1.55.1,3.18.18,4.81,0,.47,0,.54-.44.54l-3.44-.05-.52,0v4.67a12,12,0,0,1-1.7.77,2,2,0,0,1-1.81-.17,2.24,2.24,0,0,0-1-.45c-.42-.06-.44-.31-.45-.62,0-.9,0-1.79,0-2.69v-1.67h-4v-1.23c0-1.15,0-2.3,0-3.46a.91.91,0,0,0-.56-.92c-.85-.45-1.67-1-2.52-1.45s-1.85-1-2.77-1.51a2.83,2.83,0,0,1-.45-.32.34.34,0,0,1-.13-.25c0-.36.13-.71.2-1.13h5.83v-.49q0-5.37,0-10.74c0-.8-.06-1.59-.09-2.39,0-.31.09-.51.44-.51H104l.26,0c0,.15,0,.3,0,.45q0,1.5,0,3c0,.33.11.45.44.44h3c0,.23,0,.39,0,.56.06,3.06.13,6.12.19,9.18,0,.38.17.45.49.45l5.17,0Zm-18.9,0,.27,0c3.6,0,7.19,0,10.79,0,.37,0,.36-.19.35-.46-.07-2.69-.15-5.38-.21-8.07,0-.34-.13-.44-.44-.42-1,.06-2,.13-3,.14-2.48,0-5,0-7.43,0-.38,0-.5.16-.44.52a4.48,4.48,0,0,1,.06.64c0,1.61,0,3.22,0,4.83Zm-4.4,1.39,0,.1c.22.14.42.29.64.42.93.51,1.87,1,2.79,1.53a2.3,2.3,0,0,0,1.22.37c3.57,0,7.14-.05,10.7,0a4.17,4.17,0,0,0,2.37-.75c.62-.39,1.26-.76,1.88-1.15a7.78,7.78,0,0,0,.7-.54ZM98.46,264c1.82.05,3.54.1,5.25.12.11,0,.32-.27.32-.41,0-1-.07-2-.12-3v-.44H98.46Zm4.62-19.28c-.7.05-1.36.13-2,.14-1.79,0-3.58,0-5.37,0a.57.57,0,0,0-.4.13.55.55,0,0,0,.48.86l6.88-.05.44,0Zm-7.86-.28H103c.09-.85.06-.89-.72-.89H99.16c-1.15,0-2.29,0-3.44,0-.41,0-.56.16-.52.55C95.21,244.14,95.21,244.24,95.22,244.39Zm7.79-2.08h-7.8v.76c.63,0,1.25.1,1.87.11h5.25C103.07,243.19,103.13,243.11,103,242.31ZM95.67,260.2l.14,3.7H97.1v-3.7Zm9.63,3.9a8.54,8.54,0,0,0,1,0c.11,0,.3-.22.29-.33,0-.93-.06-1.85-.09-2.77,0-.27,0-.53,0-.79H105.3Zm-5.46,3.54,2.13-1c.22-.11.39-.27.22-.56C101.49,266.22,99.85,267.24,99.84,267.64Zm.56,1.23h1.82V268Zm-.27,1.43a2.4,2.4,0,0,0,2,0Zm-.31-4.55.63-.34C100.16,265.36,99.77,265.15,99.82,265.75Z" transform="translate(-88.05 -240.91)"/></svg>