<svg id="Layer_1" data-name="Layer 1" xmlns="http://www.w3.org/2000/svg" viewBox="0 0 403.55 242.6"><path d="M488.72,390.77V507c0,.71,0,1.41,0,2.11-.13,2-.94,2.89-3.17,2.87-16.81-.09-33.63-.06-50.44-.06H372.21c-4.2,0-4.42-.2-4.42-4.49q0-42,0-84V274.19c0-4.72.09-4.77,4.66-4.77q56.52,0,113.05-.07c2.2,0,3.07.84,3.19,2.83.05,1,0,1.94,0,2.91Zm-60.19-.6v-.05h-37c-3.17,0-4,.85-4,4.13q0,6.08,0,12.15c0,4.37.29,4.64,4.65,4.64h44.64a19.36,19.36,0,0,1,2.64.06c1.5.22,1.94,1.08,1.2,2.44-1.44,2.69-2.85,5.41-4.38,8.06-4,7-8.18,14-12.19,21.08-4.83,8.51-9.54,17.08-14.36,25.59-1.34,2.37-1,3.27,1.63,3.29,6.87.05,13.74.08,20.6-.06a4.07,4.07,0,0,0,2.92-1.63c3.55-5.69,6.95-11.48,10.34-17.27,2.82-4.81,5.59-9.65,8.36-14.49,4.29-7.5,8.5-15.05,12.85-22.52a18,18,0,0,0,2.68-10.73c-.27-3.5,0-7-.05-10.56s-.47-4.11-4.11-4.12Q446.76,390.15,428.53,390.17Zm-30.14-80.4v0c-2.38,0-4.75,0-7.13,0-3.4.08-4.18.83-3.4,4.2,1.27,5.49,2.48,10.93,5.45,16a41.9,41.9,0,0,0,11,12.43,42.38,42.38,0,0,0,14.82,6.89c10,2.7,19.31.83,28.23-3.62a37.83,37.83,0,0,0,13.87-12.15A42.16,42.16,0,0,0,469,312.62c.19-2-.57-2.92-2.67-2.89-4.83.06-9.67,0-14.51,0-2.54,0-4,1-4,3.65,0,3.55-1.78,6.37-3.88,9-4.26,5.28-9.86,7.14-16.64,7.31-8.44.21-18.36-8.49-18.66-17.35-.06-1.82-.89-2.53-2.59-2.52Z" transform="translate(-85.17 -269.35)"/><path d="M206.11,390.83V505.72c0,1,0,1.94,0,2.9,0,2.38-.94,3.33-3.52,3.32q-57.2-.1-114.37,0c-2.14,0-2.85-.92-3-2.74-.07-.88,0-1.76,0-2.64V275.47c0-.44,0-.88,0-1.32,0-4.61.19-4.74,4.7-4.73h111.2c5,0,5,0,5,5.2Zm-101.28-.18q0,28.65,0,57.3c0,4,.21,7.86,1.93,11.78,2.37,5.41,10.15,12,16.93,11.9,14.52-.17,29.05-.11,43.57,0a17,17,0,0,0,9.77-3.41c6.69-4.51,9.31-11.16,9.31-19q0-56.9,0-113.81a42.62,42.62,0,0,0-1.43-11.66c-2-7.34-10.59-14.05-17.85-14-14.53.09-29.05-.14-43.57.18a18.52,18.52,0,0,0-9.28,3.08c-6.44,4.3-9.5,10.55-9.44,18.52C104.94,351.21,104.83,370.93,104.83,390.65Z" transform="translate(-85.17 -269.35)"/><path d="M347.18,390.79q0,58.23,0,116.47c0,4-.61,4.63-4.51,4.63H231.22c-3.91,0-4.5-.6-4.5-4.64q0-116.6,0-233.2c0-4,.6-4.64,4.5-4.64h111.2c4.26,0,4.77.51,4.77,4.9Zm-100.7-.39c0,19.27,0,38.54,0,57.81,0,4.62-.09,9.35,2.72,13.47,3.9,5.69,8.77,9.84,16.07,9.87,14.26.07,28.52,0,42.77,0,7.64,0,12.72-4.21,16.73-10.2,2.72-4.08,2.55-8.73,2.55-13.25q.12-57.83,0-115.64c0-3.23-.08-6.69-1.21-9.63-2.78-7.2-10.21-13.41-19.08-13.21-13.11.3-26.23.21-39.34,0a20.07,20.07,0,0,0-13.66,4.49c-3.22,2.67-6,5.84-6.81,10a51.51,51.51,0,0,0-.75,9.71C246.45,352.73,246.48,371.56,246.48,390.4Z" transform="translate(-85.17 -269.35)"/><path d="M165.31,390.65c0,13.55-.07,27.11,0,40.67.07,8.66-4.31,14.76-11.66,18.08a20.27,20.27,0,0,1-17.84-.7c-4.38-2.19-7.07-5.75-9-9.83-1.09-2.35-1.12-5.33-1.13-8-.07-26.94,0-53.87-.06-80.81a19.22,19.22,0,0,1,6.87-15.21c4.09-3.58,9-4.61,14.17-4.41,9.32.37,14.78,5.94,18.08,14.07a11.33,11.33,0,0,1,.46,4.17q0,21,0,42Z" transform="translate(-85.17 -269.35)"/><path d="M307.16,390.88c0,13.12.11,26.24,0,39.36-.11,8.73-4,15.73-12.06,19.12-8.48,3.58-17.89,1.92-24.15-6.22a19.57,19.57,0,0,1-4.09-12c-.13-27-.22-54.07,0-81.09.07-8.29,4.32-15.07,11.91-18.1,8.77-3.5,18.13-2.12,24.41,6.67a22.69,22.69,0,0,1,4,13.4C307.21,365,307.16,377.94,307.16,390.88Z" transform="translate(-85.17 -269.35)"/></svg>