<svg id="Layer_1" data-name="Layer 1" xmlns="http://www.w3.org/2000/svg" viewBox="0 0 262.22 110.09"><defs><style>.cls-1{stroke:#000;stroke-miterlimit:10;stroke-width:7px;}</style></defs><path class="cls-1" d="M131.2,98.38a15.62,15.62,0,0,1-14.7,8.07c-15.13-.37-30.27-.78-45.34-2-4-.32-7.83-3.7-11.81-5.52-1.32-.6-3-1.25-4.3-.93-12,3-24.07,2.78-36.2.88C11.47,97.72,7,93.5,5.85,86.31,3,67.43,2.2,48.44,6.58,29.71A46,46,0,0,1,14.13,13.6C21.44,3.54,33.37,2.28,42.32,10.88c5.17,5,8.81,11.55,12.93,17.55,1.38,2,2.15,4.44,3.37,7.06,3-5.31,5.33-10.39,8.39-15C81-.7,99.43-1.95,116.27,17a66.9,66.9,0,0,1,14.78,28.5c.91-2.61,1.52-4.26,2.08-5.93,3.94-11.64,10.4-21.61,20.05-29.27,12.23-9.71,25-9.14,35.63,2.36,5,5.41,8.41,12.28,12.48,18.52a48.65,48.65,0,0,1,2.22,4.6c1.6-3.36,2.49-6.27,4.2-8.58,4.49-6.11,8.59-12.82,14.22-17.71,7.87-6.84,17.88-5.24,25,2.45,6.27,6.76,9.13,15.15,10.28,24a172.25,172.25,0,0,1-.55,49.31c-1.37,8.55-5,12.14-13.54,13.65a85.59,85.59,0,0,1-35.7-.82c-1.38-.34-3.21.49-4.66,1.15-3.69,1.69-7.18,4.88-10.93,5.19-14.91,1.21-29.88,1.68-44.84,2.15C140.77,106.73,135.18,104.75,131.2,98.38ZM59.41,71.77c.2,3.65.49,10.3.93,16.94.52,7.77,3.11,11.3,10.76,11.85,15.23,1.08,30.52,1.71,45.79,1.84,7.92.06,11.56-3.52,11.59-11.37,0-14.44.19-29-1.47-43.28-1.69-14.6-9.76-26.4-21.54-35.27C95.91,5.3,86.54,5.65,77.93,13.92A73.21,73.21,0,0,0,67.09,28.1C59.31,40.59,59.83,54.79,59.41,71.77ZM203.09,68.9h-.73c0-5.67.31-11.35-.06-17-1-15.12-6.94-28.08-18.16-38.3-8.56-7.8-17.56-8.4-26.74-1.33a58.17,58.17,0,0,0-13,13.66c-14.21,21.37-11.93,45.38-9.76,69.16.46,5,5,7.31,9.58,7.21,16.12-.35,32.24-1,48.34-1.92,5.34-.33,8.8-3.88,9.21-9.54C202.33,83.54,202.67,76.22,203.09,68.9Zm52.09-10.34-.9-.05c0-4.83.21-9.67,0-14.49-.48-8.91-2.31-17.53-7-25.26-6.91-11.36-18.12-13-26.73-2.87-5.29,6.21-9.11,13.84-12.69,21.26-1.68,3.48-1.63,8-1.68,12-.17,13.15.26,26.32-.15,39.45-.13,4,1,5.91,4.52,6,10.76.3,21.53.58,32.29.28,5.93-.17,9.32-4.14,9.95-10,.87-8.76,1.58-17.54,2.39-26.32ZM6.94,55.72c1,11,1.54,19.64,2.54,28.23.83,7.16,3.58,10.63,10.68,11,10.56.58,21.2,0,31.79-.33,3.69-.11,4.63-2.31,4.53-6.09-.35-12.64-.59-25.3-.06-37.92.65-15.9-6.84-27.78-17.84-37.79C32.37,7.17,24,8,18.58,14.52c-3.12,3.74-6,8.31-7.11,13-2.29,10-3.32,20.28-4.53,28.25Z"/></svg>